{
  "accessors": [
    {
      "bufferView": 2,
      "componentType": 5126,
      "count": 493,
      "max": [
        1.0552948713302612,
        1.0436331033706665,
        1.0
      ],
      "min": [
        -1.0288809537887573,
        -1.0021445751190186,
        -1.0
      ],
      "type": "VEC3"
    },
    {
      "bufferView": 2,
      "byteOffset": 5916,
      "componentType": 5126,
      "count": 493,
      "max": [
        1.0,
        1.0,
        1.0
      ],
      "min": [
        -1.0,
        -1.0,
        -1.0
      ],
      "type": "VEC3"
    },
    {
      "bufferView": 1,
      "componentType": 5126,
      "count": 493,
      "max": [
        0.8750000596046448,
        1.0
      ],
      "min": [
        0.125,
        0.013088071718811989
      ],
      "type": "VEC2"
    },
    {
      "bufferView": 0,
      "componentType": 5125,
      "count": 786,
      "type": "SCALAR"
    },
    {
      "bufferView": 2,
      "byteOffset": 11832,
      "componentType": 5126,
      "count": 172,
      "max": [
        1.553044319152832,
        1.0436331033706665,
        1.0
      ],
      "min": [
        -1.0288809537887573,
        -1.0021445751190186,
        -1.0
      ],
      "type": "VEC3"
    },
    {
      "bufferView": 2,
      "byteOffset": 13896,
      "componentType": 5126,
      "count": 172,
      "max": [
        1.0,
        0.9978328347206116,
        0.9951550960540771
      ],
      "min": [
        -1.0,
        -1.0,
        -0.9951550960540771
      ],
      "type": "VEC3"
    },
    {
      "bufferView": 1,
      "byteOffset": 3944,
      "componentType": 5126,
      "count": 172,
      "max": [
        0.875,
        0.75
      ],
      "min": [
        0.125,
        0.0
      ],
      "type": "VEC2"
    },
    {
      "bufferView": 0,
      "byteOffset": 3144,
      "componentType": 5125,
      "count": 258,
      "type": "SCALAR"
    },
    {
      "bufferView": 2,
      "byteOffset": 15960,
      "componentType": 5126,
      "count": 86,
      "max": [
        1.0552947521209717,
        0.7643592357635498,
        1.0
      ],
      "min": [
        -0.7919300198554993,
        -0.7291866540908813,
        -1.0
      ],
      "type": "VEC3"
    },
    {
      "bufferView": 2,
      "byteOffset": 16992,
      "componentType": 5126,
      "count": 86,
      "max": [
        1.0,
        1.0,
        1.0
      ],
      "min": [
        -1.0,
        -1.0,
        -1.0
      ],
      "type": "VEC3"
    },
    {
      "bufferView": 1,
      "byteOffset": 5320,
      "componentType": 5126,
      "count": 86,
      "max": [
        0.6229023933410645,
        0.75
      ],
      "min": [
        0.40370333194732666,
        0.017055662348866463
      ],
      "type": "VEC2"
    },
    {
      "bufferView": 0,
      "byteOffset": 4176,
      "componentType": 5125,
      "count": 132,
      "type": "SCALAR"
    },
    {
      "bufferView": 2,
      "byteOffset": 18024,
      "componentType": 5126,
      "count": 20,
      "max": [
        -0.7919299006462097,
        -0.019476383924484253,
        0.5615166425704956
      ],
      "min": [
        -0.8179928064346313,
        -0.0721549391746521,
        0.456018328666687
      ],
      "type": "VEC3"
    },
    {
      "bufferView": 2,
      "byteOffset": 18264,
      "componentType": 5126,
      "count": 20,
      "max": [
        -0.46053579449653625,
        0.8876378536224365,
        0.6934331059455872
      ],
      "min": [
        -1.0,
        -0.887641191482544,
        -0.6934329867362976
      ],
      "type": "VEC3"
    },
    {
      "bufferView": 1,
      "byteOffset": 6008,
      "componentType": 5126,
      "count": 20,
      "max": [
        0.5390080213546753,
        0.0570475235581398
      ],
      "min": [
        0.5331493020057678,
        0.041326940059661865
      ],
      "type": "VEC2"
    },
    {
      "bufferView": 0,
      "byteOffset": 4704,
      "componentType": 5125,
      "count": 30,
      "type": "SCALAR"
    },
    {
      "bufferView": 2,
      "byteOffset": 18504,
      "componentType": 5126,
      "count": 105,
      "max": [
        0.5171734690666199,
        2.614201068878174,
        0.5171734690666199
      ],
      "min": [
        -0.5171734690666199,
        0.9999999403953552,
        -0.5171734690666199
      ],
      "type": "VEC3"
    },
    {
      "bufferView": 2,
      "byteOffset": 19764,
      "componentType": 5126,
      "count": 105,
      "max": [
        0.9737083315849304,
        0.8863382935523987,
        0.9737083315849304
      ],
      "min": [
        -0.9737083315849304,
        -0.2298622578382492,
        -0.9737083315849304
      ],
      "type": "VEC3"
    },
    {
      "bufferView": 1,
      "byteOffset": 6168,
      "componentType": 5126,
      "count": 105,
      "max": [
        0.6250000596046448,
        1.0
      ],
      "min": [
        0.6249999403953552,
        0.0
      ],
      "type": "VEC2"
    },
    {
      "bufferView": 0,
      "byteOffset": 4824,
      "componentType": 5125,
      "count": 216,
      "type": "SCALAR"
    },
    {
      "bufferView": 2,
      "byteOffset": 21024,
      "componentType": 5126,
      "count": 164,
      "max": [
        0.5841246247291565,
        9.104330062866211,
        0.5841246247291565
      ],
      "min": [
        -0.5841246247291565,
        2.611849784851074,
        -0.5841246247291565
      ],
      "type": "VEC3"
    },
    {
      "bufferView": 2,
      "byteOffset": 22992,
      "componentType": 5126,
      "count": 164,
      "max": [
        0.9697884917259216,
        1.0,
        0.9697884917259216
      ],
      "min": [
        -0.9697884917259216,
        -0.266649454832077,
        -0.9697884917259216
      ],
      "type": "VEC3"
    },
    {
      "bufferView": 1,
      "byteOffset": 7008,
      "componentType": 5126,
      "count": 164,
      "max": [
        0.875,
        1.0
      ],
      "min": [
        0.6249998807907104,
        0.0
      ],
      "type": "VEC2"
    },
    {
      "bufferView": 0,
      "byteOffset": 5688,
      "componentType": 5125,
      "count": 414,
      "type": "SCALAR"
    },
    {
      "bufferView": 2,
      "byteOffset": 24960,
      "componentType": 5126,
      "count": 82,
      "max": [
        1.0,
        1.0,
        1.0
      ],
      "min": [
        -1.0,
        0.33780980110168457,
        -1.0
      ],
      "type": "VEC3"
    },
    {
      "bufferView": 2,
      "byteOffset": 25944,
      "componentType": 5126,
      "count": 82,
      "max": [
        0.9708698987960815,
        0.9999902844429016,
        0.9708698391914368
      ],
      "min": [
        -0.9708698987960815,
        -0.9999896287918091,
        -0.9708698391914368
      ],
      "type": "VEC3"
    },
    {
      "bufferView": 1,
      "byteOffset": 8320,
      "componentType": 5126,
      "count": 82,
      "max": [
        0.6250000596046448,
        1.0
      ],
      "min": [
        0.125,
        0.0
      ],
      "type": "VEC2"
    },
    {
      "bufferView": 0,
      "byteOffset": 7344,
      "componentType": 5125,
      "count": 198,
      "type": "SCALAR"
    },
    {
      "bufferView": 2,
      "byteOffset": 26928,
      "componentType": 5126,
      "count": 105,
      "max": [
        0.5171734690666199,
        2.614201068878174,
        0.5171734690666199
      ],
      "min": [
        -0.5171734690666199,
        0.9999999403953552,
        -0.5171734690666199
      ],
      "type": "VEC3"
    },
    {
      "bufferView": 2,
      "byteOffset": 28188,
      "componentType": 5126,
      "count": 105,
      "max": [
        0.9737083315849304,
        0.8863382935523987,
        0.9737083315849304
      ],
      "min": [
        -0.9737083315849304,
        -0.2298622578382492,
        -0.9737083315849304
      ],
      "type": "VEC3"
    },
    {
      "bufferView": 1,
      "byteOffset": 8976,
      "componentType": 5126,
      "count": 105,
      "max": [
        0.6250000596046448,
        1.0
      ],
      "min": [
        0.6249999403953552,
        0.0
      ],
      "type": "VEC2"
    },
    {
      "bufferView": 0,
      "byteOffset": 8136,
      "componentType": 5125,
      "count": 216,
      "type": "SCALAR"
    },
    {
      "bufferView": 2,
      "byteOffset": 29448,
      "componentType": 5126,
      "count": 164,
      "max": [
        0.5841246247291565,
        9.104330062866211,
        0.5841246247291565
      ],
      "min": [
        -0.5841246247291565,
        2.611849784851074,
        -0.5841246247291565
      ],
      "type": "VEC3"
    },
    {
      "bufferView": 2,
      "byteOffset": 31416,
      "componentType": 5126,
      "count": 164,
      "max": [
        0.9697884917259216,
        1.0,
        0.9697884917259216
      ],
      "min": [
        -0.9697884917259216,
        -0.266649454832077,
        -0.9697884917259216
      ],
      "type": "VEC3"
    },
    {
      "bufferView": 1,
      "byteOffset": 9816,
      "componentType": 5126,
      "count": 164,
      "max": [
        0.875,
        1.0
      ],
      "min": [
        0.6249998807907104,
        0.0
      ],
      "type": "VEC2"
    },
    {
      "bufferView": 0,
      "byteOffset": 9000,
      "componentType": 5125,
      "count": 414,
      "type": "SCALAR"
    },
    {
      "bufferView": 2,
      "byteOffset": 33384,
      "componentType": 5126,
      "count": 82,
      "max": [
        1.0,
        1.0,
        1.0
      ],
      "min": [
        -1.0,
        0.33780980110168457,
        -1.0
      ],
      "type": "VEC3"
    },
    {
      "bufferView": 2,
      "byteOffset": 34368,
      "componentType": 5126,
      "count": 82,
      "max": [
        0.9708698987960815,
        0.9999902844429016,
        0.9708698391914368
      ],
      "min": [
        -0.9708698987960815,
        -0.9999896287918091,
        -0.9708698391914368
      ],
      "type": "VEC3"
    },
    {
      "bufferView": 1,
      "byteOffset": 11128,
      "componentType": 5126,
      "count": 82,
      "max": [
        0.6250000596046448,
        1.0
      ],
      "min": [
        0.125,
        0.0
      ],
      "type": "VEC2"
    },
    {
      "bufferView": 0,
      "byteOffset": 10656,
      "componentType": 5125,
      "count": 198,
      "type": "SCALAR"
    },
    {
      "bufferView": 2,
      "byteOffset": 35352,
      "componentType": 5126,
      "count": 144,
      "max": [
        0.2865017354488373,
        0.060679417103528976,
        0.2865017354488373
      ],
      "min": [
        -0.2865017354488373,
        -0.0014486704021692276,
        -0.2865017354488373
      ],
      "type": "VEC3"
    },
    {
      "bufferView": 2,
      "byteOffset": 37080,
      "componentType": 5126,
      "count": 144,
      "max": [
        0.9807852506637573,
        0.9997841715812683,
        0.9807853698730469
      ],
      "min": [
        -0.9807852506637573,
        -1.0,
        -0.9807853698730469
      ],
      "type": "VEC3"
    },
    {
      "bufferView": 1,
      "byteOffset": 11784,
      "componentType": 5126,
      "count": 144,
      "max": [
        0.0,
        0.0
      ],
      "min": [
        0.0,
        0.0
      ],
      "type": "VEC2"
    },
    {
      "bufferView": 0,
      "byteOffset": 11448,
      "componentType": 5125,
      "count": 234,
      "type": "SCALAR"
    },
    {
      "bufferView": 2,
      "byteOffset": 38808,
      "componentType": 5126,
      "count": 144,
      "max": [
        0.21547898650169373,
        0.13133962452411652,
        0.21547898650169373
      ],
      "min": [
        -0.21547898650169373,
        0.05923175811767578,
        -0.21547898650169373
      ],
      "type": "VEC3"
    },
    {
      "bufferView": 2,
      "byteOffset": 40536,
      "componentType": 5126,
      "count": 144,
      "max": [
        0.9807853102684021,
        1.0,
        0.9807853102684021
      ],
      "min": [
        -0.9807853102684021,
        0.0,
        -0.9807853102684021
      ],
      "type": "VEC3"
    },
    {
      "bufferView": 1,
      "byteOffset": 12936,
      "componentType": 5126,
      "count": 144,
      "max": [
        0.0,
        0.0
      ],
      "min": [
        0.0,
        0.0
      ],
      "type": "VEC2"
    },
    {
      "bufferView": 0,
      "byteOffset": 12384,
      "componentType": 5125,
      "count": 234,
      "type": "SCALAR"
    },
    {
      "bufferView": 2,
      "byteOffset": 42264,
      "componentType": 5126,
      "count": 144,
      "max": [
        0.2865017354488373,
        0.060679417103528976,
        0.2865017354488373
      ],
      "min": [
        -0.2865017354488373,
        -0.0014486704021692276,
        -0.2865017354488373
      ],
      "type": "VEC3"
    },
    {
      "bufferView": 2,
      "byteOffset": 43992,
      "componentType": 5126,
      "count": 144,
      "max": [
        0.9807852506637573,
        0.9997841715812683,
        0.9807853698730469
      ],
      "min": [
        -0.9807852506637573,
        -1.0,
        -0.9807853698730469
      ],
      "type": "VEC3"
    },
    {
      "bufferView": 1,
      "byteOffset": 14088,
      "componentType": 5126,
      "count": 144,
      "max": [
        0.0,
        0.0
      ],
      "min": [
        0.0,
        0.0
      ],
      "type": "VEC2"
    },
    {
      "bufferView": 0,
      "byteOffset": 13320,
      "componentType": 5125,
      "count": 234,
      "type": "SCALAR"
    },
    {
      "bufferView": 2,
      "byteOffset": 45720,
      "componentType": 5126,
      "count": 144,
      "max": [
        0.21547898650169373,
        0.13133962452411652,
        0.21547898650169373
      ],
      "min": [
        -0.21547898650169373,
        0.05923175811767578,
        -0.21547898650169373
      ],
      "type": "VEC3"
    },
    {
      "bufferView": 2,
      "byteOffset": 47448,
      "componentType": 5126,
      "count": 144,
      "max": [
        0.9807853102684021,
        1.0,
        0.9807853102684021
      ],
      "min": [
        -0.9807853102684021,
        0.0,
        -0.9807853102684021
      ],
      "type": "VEC3"
    },
    {
      "bufferView": 1,
      "byteOffset": 15240,
      "componentType": 5126,
      "count": 144,
      "max": [
        0.0,
        0.0
      ],
      "min": [
        0.0,
        0.0
      ],
      "type": "VEC2"
    },
    {
      "bufferView": 0,
      "byteOffset": 14256,
      "componentType": 5125,
      "count": 234,
      "type": "SCALAR"
    },
    {
      "bufferView": 2,
      "byteOffset": 49176,
      "componentType": 5126,
      "count": 144,
      "max": [
        0.2865017354488373,
        0.060679417103528976,
        0.2865017354488373
      ],
      "min": [
        -0.2865017354488373,
        -0.0014486704021692276,
        -0.2865017354488373
      ],
      "type": "VEC3"
    },
    {
      "bufferView": 2,
      "byteOffset": 50904,
      "componentType": 5126,
      "count": 144,
      "max": [
        0.9807852506637573,
        0.9997841715812683,
        0.9807853698730469
      ],
      "min": [
        -0.9807852506637573,
        -1.0,
        -0.9807853698730469
      ],
      "type": "VEC3"
    },
    {
      "bufferView": 1,
      "byteOffset": 16392,
      "componentType": 5126,
      "count": 144,
      "max": [
        0.0,
        0.0
      ],
      "min": [
        0.0,
        0.0
      ],
      "type": "VEC2"
    },
    {
      "bufferView": 0,
      "byteOffset": 15192,
      "componentType": 5125,
      "count": 234,
      "type": "SCALAR"
    },
    {
      "bufferView": 2,
      "byteOffset": 52632,
      "componentType": 5126,
      "count": 144,
      "max": [
        0.21547898650169373,
        0.13133962452411652,
        0.21547898650169373
      ],
      "min": [
        -0.21547898650169373,
        0.05923175811767578,
        -0.21547898650169373
      ],
      "type": "VEC3"
    },
    {
      "bufferView": 2,
      "byteOffset": 54360,
      "componentType": 5126,
      "count": 144,
      "max": [
        0.9807853102684021,
        1.0,
        0.9807853102684021
      ],
      "min": [
        -0.9807853102684021,
        0.0,
        -0.9807853102684021
      ],
      "type": "VEC3"
    },
    {
      "bufferView": 1,
      "byteOffset": 17544,
      "componentType": 5126,
      "count": 144,
      "max": [
        0.0,
        0.0
      ],
      "min": [
        0.0,
        0.0
      ],
      "type": "VEC2"
    },
    {
      "bufferView": 0,
      "byteOffset": 16128,
      "componentType": 5125,
      "count": 234,
      "type": "SCALAR"
    },
    {
      "bufferView": 2,
      "byteOffset": 56088,
      "componentType": 5126,
      "count": 144,
      "max": [
        0.2865017354488373,
        0.060679417103528976,
        0.2865017354488373
      ],
      "min": [
        -0.2865017354488373,
        -0.0014486704021692276,
        -0.2865017354488373
      ],
      "type": "VEC3"
    },
    {
      "bufferView": 2,
      "byteOffset": 57816,
      "componentType": 5126,
      "count": 144,
      "max": [
        0.9807852506637573,
        0.9997841715812683,
        0.9807853698730469
      ],
      "min": [
        -0.9807852506637573,
        -1.0,
        -0.9807853698730469
      ],
      "type": "VEC3"
    },
    {
      "bufferView": 1,
      "byteOffset": 18696,
      "componentType": 5126,
      "count": 144,
      "max": [
        0.0,
        0.0
      ],
      "min": [
        0.0,
        0.0
      ],
      "type": "VEC2"
    },
    {
      "bufferView": 0,
      "byteOffset": 17064,
      "componentType": 5125,
      "count": 234,
      "type": "SCALAR"
    },
    {
      "bufferView": 2,
      "byteOffset": 59544,
      "componentType": 5126,
      "count": 144,
      "max": [
        0.21547898650169373,
        0.13133962452411652,
        0.21547898650169373
      ],
      "min": [
        -0.21547898650169373,
        0.05923175811767578,
        -0.21547898650169373
      ],
      "type": "VEC3"
    },
    {
      "bufferView": 2,
      "byteOffset": 61272,
      "componentType": 5126,
      "count": 144,
      "max": [
        0.9807853102684021,
        1.0,
        0.9807853102684021
      ],
      "min": [
        -0.9807853102684021,
        0.0,
        -0.9807853102684021
      ],
      "type": "VEC3"
    },
    {
      "bufferView": 1,
      "byteOffset": 19848,
      "componentType": 5126,
      "count": 144,
      "max": [
        0.0,
        0.0
      ],
      "min": [
        0.0,
        0.0
      ],
      "type": "VEC2"
    },
    {
      "bufferView": 0,
      "byteOffset": 18000,
      "componentType": 5125,
      "count": 234,
      "type": "SCALAR"
    },
    {
      "bufferView": 2,
      "byteOffset": 63000,
      "componentType": 5126,
      "count": 144,
      "max": [
        0.2865017354488373,
        0.060679417103528976,
        0.2865017354488373
      ],
      "min": [
        -0.2865017354488373,
        -0.0014486704021692276,
        -0.2865017354488373
      ],
      "type": "VEC3"
    },
    {
      "bufferView": 2,
      "byteOffset": 64728,
      "componentType": 5126,
      "count": 144,
      "max": [
        0.9807852506637573,
        0.9997841715812683,
        0.9807853698730469
      ],
      "min": [
        -0.9807852506637573,
        -1.0,
        -0.9807853698730469
      ],
      "type": "VEC3"
    },
    {
      "bufferView": 1,
      "byteOffset": 21000,
      "componentType": 5126,
      "count": 144,
      "max": [
        0.0,
        0.0
      ],
      "min": [
        0.0,
        0.0
      ],
      "type": "VEC2"
    },
    {
      "bufferView": 0,
      "byteOffset": 18936,
      "componentType": 5125,
      "count": 234,
      "type": "SCALAR"
    },
    {
      "bufferView": 2,
      "byteOffset": 66456,
      "componentType": 5126,
      "count": 144,
      "max": [
        0.21547898650169373,
        0.13133962452411652,
        0.21547898650169373
      ],
      "min": [
        -0.21547898650169373,
        0.05923175811767578,
        -0.21547898650169373
      ],
      "type": "VEC3"
    },
    {
      "bufferView": 2,
      "byteOffset": 68184,
      "componentType": 5126,
      "count": 144,
      "max": [
        0.9807853102684021,
        1.0,
        0.9807853102684021
      ],
      "min": [
        -0.9807853102684021,
        0.0,
        -0.9807853102684021
      ],
      "type": "VEC3"
    },
    {
      "bufferView": 1,
      "byteOffset": 22152,
      "componentType": 5126,
      "count": 144,
      "max": [
        0.0,
        0.0
      ],
      "min": [
        0.0,
        0.0
      ],
      "type": "VEC2"
    },
    {
      "bufferView": 0,
      "byteOffset": 19872,
      "componentType": 5125,
      "count": 234,
      "type": "SCALAR"
    },
    {
      "bufferView": 2,
      "byteOffset": 69912,
      "componentType": 5126,
      "count": 144,
      "max": [
        0.2865017354488373,
        0.060679417103528976,
        0.2865017354488373
      ],
      "min": [
        -0.2865017354488373,
        -0.0014486704021692276,
        -0.2865017354488373
      ],
      "type": "VEC3"
    },
    {
      "bufferView": 2,
      "byteOffset": 71640,
      "componentType": 5126,
      "count": 144,
      "max": [
        0.9807852506637573,
        0.9997841715812683,
        0.9807853698730469
      ],
      "min": [
        -0.9807852506637573,
        -1.0,
        -0.9807853698730469
      ],
      "type": "VEC3"
    },
    {
      "bufferView": 1,
      "byteOffset": 23304,
      "componentType": 5126,
      "count": 144,
      "max": [
        0.0,
        0.0
      ],
      "min": [
        0.0,
        0.0
      ],
      "type": "VEC2"
    },
    {
      "bufferView": 0,
      "byteOffset": 20808,
      "componentType": 5125,
      "count": 234,
      "type": "SCALAR"
    },
    {
      "bufferView": 2,
      "byteOffset": 73368,
      "componentType": 5126,
      "count": 144,
      "max": [
        0.21547898650169373,
        0.13133962452411652,
        0.21547898650169373
      ],
      "min": [
        -0.21547898650169373,
        0.05923175811767578,
        -0.21547898650169373
      ],
      "type": "VEC3"
    },
    {
      "bufferView": 2,
      "byteOffset": 75096,
      "componentType": 5126,
      "count": 144,
      "max": [
        0.9807853102684021,
        1.0,
        0.9807853102684021
      ],
      "min": [
        -0.9807853102684021,
        0.0,
        -0.9807853102684021
      ],
      "type": "VEC3"
    },
    {
      "bufferView": 1,
      "byteOffset": 24456,
      "componentType": 5126,
      "count": 144,
      "max": [
        0.0,
        0.0
      ],
      "min": [
        0.0,
        0.0
      ],
      "type": "VEC2"
    },
    {
      "bufferView": 0,
      "byteOffset": 21744,
      "componentType": 5125,
      "count": 234,
      "type": "SCALAR"
    },
    {
      "bufferView": 2,
      "byteOffset": 76824,
      "componentType": 5126,
      "count": 144,
      "max": [
        0.2865017354488373,
        0.060679417103528976,
        0.2865017354488373
      ],
      "min": [
        -0.2865017354488373,
        -0.0014486704021692276,
        -0.2865017354488373
      ],
      "type": "VEC3"
    },
    {
      "bufferView": 2,
      "byteOffset": 78552,
      "componentType": 5126,
      "count": 144,
      "max": [
        0.9807852506637573,
        0.9997841715812683,
        0.9807853698730469
      ],
      "min": [
        -0.9807852506637573,
        -1.0,
        -0.9807853698730469
      ],
      "type": "VEC3"
    },
    {
      "bufferView": 1,
      "byteOffset": 25608,
      "componentType": 5126,
      "count": 144,
      "max": [
        0.0,
        0.0
      ],
      "min": [
        0.0,
        0.0
      ],
      "type": "VEC2"
    },
    {
      "bufferView": 0,
      "byteOffset": 22680,
      "componentType": 5125,
      "count": 234,
      "type": "SCALAR"
    },
    {
      "bufferView": 2,
      "byteOffset": 80280,
      "componentType": 5126,
      "count": 144,
      "max": [
        0.21547898650169373,
        0.13133962452411652,
        0.21547898650169373
      ],
      "min": [
        -0.21547898650169373,
        0.05923175811767578,
        -0.21547898650169373
      ],
      "type": "VEC3"
    },
    {
      "bufferView": 2,
      "byteOffset": 82008,
      "componentType": 5126,
      "count": 144,
      "max": [
        0.9807853102684021,
        1.0,
        0.9807853102684021
      ],
      "min": [
        -0.9807853102684021,
        0.0,
        -0.9807853102684021
      ],
      "type": "VEC3"
    },
    {
      "bufferView": 1,
      "byteOffset": 26760,
      "componentType": 5126,
      "count": 144,
      "max": [
        0.0,
        0.0
      ],
      "min": [
        0.0,
        0.0
      ],
      "type": "VEC2"
    },
    {
      "bufferView": 0,
      "byteOffset": 23616,
      "componentType": 5125,
      "count": 234,
      "type": "SCALAR"
    },
    {
      "bufferView": 2,
      "byteOffset": 83736,
      "componentType": 5126,
      "count": 144,
      "max": [
        0.2865017354488373,
        0.060679417103528976,
        0.2865017354488373
      ],
      "min": [
        -0.2865017354488373,
        -0.0014486704021692276,
        -0.2865017354488373
      ],
      "type": "VEC3"
    },
    {
      "bufferView": 2,
      "byteOffset": 85464,
      "componentType": 5126,
      "count": 144,
      "max": [
        0.9807852506637573,
        0.9997841715812683,
        0.9807853698730469
      ],
      "min": [
        -0.9807852506637573,
        -1.0,
        -0.9807853698730469
      ],
      "type": "VEC3"
    },
    {
      "bufferView": 1,
      "byteOffset": 27912,
      "componentType": 5126,
      "count": 144,
      "max": [
        0.0,
        0.0
      ],
      "min": [
        0.0,
        0.0
      ],
      "type": "VEC2"
    },
    {
      "bufferView": 0,
      "byteOffset": 24552,
      "componentType": 5125,
      "count": 234,
      "type": "SCALAR"
    },
    {
      "bufferView": 2,
      "byteOffset": 87192,
      "componentType": 5126,
      "count": 144,
      "max": [
        0.21547898650169373,
        0.13133962452411652,
        0.21547898650169373
      ],
      "min": [
        -0.21547898650169373,
        0.05923175811767578,
        -0.21547898650169373
      ],
      "type": "VEC3"
    },
    {
      "bufferView": 2,
      "byteOffset": 88920,
      "componentType": 5126,
      "count": 144,
      "max": [
        0.9807853102684021,
        1.0,
        0.9807853102684021
      ],
      "min": [
        -0.9807853102684021,
        0.0,
        -0.9807853102684021
      ],
      "type": "VEC3"
    },
    {
      "bufferView": 1,
      "byteOffset": 29064,
      "componentType": 5126,
      "count": 144,
      "max": [
        0.0,
        0.0
      ],
      "min": [
        0.0,
        0.0
      ],
      "type": "VEC2"
    },
    {
      "bufferView": 0,
      "byteOffset": 25488,
      "componentType": 5125,
      "count": 234,
      "type": "SCALAR"
    },
    {
      "bufferView": 2,
      "byteOffset": 90648,
      "componentType": 5126,
      "count": 4,
      "max": [
        0.6967891454696655,
        0.8296956419944763,
        0.8296956419944763
      ],
      "min": [
        0.6967891454696655,
        -0.8296956419944763,
        -0.8296956419944763
      ],
      "type": "VEC3"
    },
    {
      "bufferView": 2,
      "byteOffset": 90696,
      "componentType": 5126,
      "count": 4,
      "max": [
        1.0,
        0.0,
        -0.0
      ],
      "min": [
        1.0,
        0.0,
        -0.0
      ],
      "type": "VEC3"
    },
    {
      "bufferView": 1,
      "byteOffset": 30216,
      "componentType": 5126,
      "count": 4,
      "max": [
        0.625,
        0.75
      ],
      "min": [
        0.375,
        0.5
      ],
      "type": "VEC2"
    },
    {
      "bufferView": 0,
      "byteOffset": 26424,
      "componentType": 5125,
      "count": 6,
      "type": "SCALAR"
    },
    {
      "bufferView": 2,
      "byteOffset": 90744,
      "componentType": 5126,
      "count": 76,
      "max": [
        1.0,
        1.0,
        1.0
      ],
      "min": [
        -2.1087474822998047,
        -1.0,
        -1.0
      ],
      "type": "VEC3"
    },
    {
      "bufferView": 2,
      "byteOffset": 91656,
      "componentType": 5126,
      "count": 76,
      "max": [
        1.0,
        1.0,
        1.0
      ],
      "min": [
        -1.0,
        -1.0,
        -1.0
      ],
      "type": "VEC3"
    },
    {
      "bufferView": 1,
      "byteOffset": 30248,
      "componentType": 5126,
      "count": 76,
      "max": [
        0.875,
        1.0
      ],
      "min": [
        0.125,
        0.0
      ],
      "type": "VEC2"
    },
    {
      "bufferView": 0,
      "byteOffset": 26448,
      "componentType": 5125,
      "count": 126,
      "type": "SCALAR"
    }
  ],
  "asset": {
    "extras": {
      "author": "Kelleesh24 (https://sketchfab.com/Creator20_Guest)",
      "license": "CC-BY-4.0 (http://creativecommons.org/licenses/by/4.0/)",
      "source": "https://sketchfab.com/3d-models/arcade-cabinet-e9e37ae7f5ed48c6ac45c35f322dcb08",
      "title": "Arcade Cabinet"
    },
    "generator": "Sketchfab-15.97.0",
    "version": "2.0"
  },
  "bufferViews": [
    {
      "buffer": 0,
      "byteLength": 26952,
      "name": "floatBufferViews",
      "target": 34963
    },
    {
      "buffer": 0,
      "byteLength": 30856,
      "byteOffset": 26952,
      "byteStride": 8,
      "name": "floatBufferViews",
      "target": 34962
    },
    {
      "buffer": 0,
      "byteLength": 92568,
      "byteOffset": 57808,
      "byteStride": 12,
      "name": "floatBufferViews",
      "target": 34962
    }
  ],
  "buffers": [
    {
      "byteLength": 150376,
      "uri": "scene.bin"
    }
  ],
  "materials": [
    {
      "doubleSided": true,
      "name": "paint",
      "pbrMetallicRoughness": {
        "baseColorFactor": [
          0.274948,
          0.133941,
          0.8,
          1.0
        ],
        "metallicFactor": 0.0,
        "roughnessFactor": 0.5
      }
    },
    {
      "doubleSided": true,
      "name": "black_plastic",
      "pbrMetallicRoughness": {
        "baseColorFactor": [
          0.014669,
          0.014669,
          0.014669,
          1.0
        ],
        "metallicFactor": 0.0,
        "roughnessFactor": 0.75
      }
    },
    {
      "doubleSided": true,
      "name": "black_metal",
      "pbrMetallicRoughness": {
        "baseColorFactor": [
          0.0173874,
          0.0173874,
          0.0173874,
          1.0
        ],
        "roughnessFactor": 0.25
      }
    },
    {
      "doubleSided": true,
      "name": "white_metal",
      "pbrMetallicRoughness": {
        "baseColorFactor": [
          0.8,
          0.8,
          0.8,
          1.0
        ],
        "roughnessFactor": 0.25
      }
    },
    {
      "doubleSided": true,
      "name": "lever",
      "pbrMetallicRoughness": {
        "baseColorFactor": [
          0.8,
          0.0385031,
          0.0513584,
          1.0
        ],
        "metallicFactor": 0.0,
        "roughnessFactor": 0.5
      }
    },
    {
      "doubleSided": true,
      "name": "button1",
      "pbrMetallicRoughness": {
        "baseColorFactor": [
          0.799103,
          0.0382042,
          0.0512695,
          1.0
        ],
        "metallicFactor": 0.0,
        "roughnessFactor": 0.5
      }
    },
    {
      "doubleSided": true,
      "name": "button2",
      "pbrMetallicRoughness": {
        "baseColorFactor": [
          0.283288,
          0.799103,
          0.0736728,
          1.0
        ],
        "metallicFactor": 0.0,
        "roughnessFactor": 0.5
      }
    },
    {
      "doubleSided": true,
      "name": "button4",
      "pbrMetallicRoughness": {
        "baseColorFactor": [
          0.799103,
          0.304917,
          0.0556596,
          1.0
        ],
        "metallicFactor": 0.0,
        "roughnessFactor": 0.5
      }
    },
    {
      "doubleSided": true,
      "name": "button3",
      "pbrMetallicRoughness": {
        "baseColorFactor": [
          0.120255,
          0.384032,
          0.799103,
          1.0
        ],
        "metallicFactor": 0.0,
        "roughnessFactor": 0.5
      }
    },
    {
      "doubleSided": true,
      "name": "material",
      "pbrMetallicRoughness": {
        "baseColorFactor": [
          0.0,
          0.0,
          0.0,
          1.0
        ],
        "roughnessFactor": 0.15
      }
    },
    {
      "doubleSided": true,
      "name": "tv_plastic",
      "pbrMetallicRoughness": {
        "baseColorFactor": [
          0.0100213,
          0.0100213,
          0.0100213,
          1.0
        ],
        "metallicFactor": 0.0,
        "roughnessFactor": 0.5
      }
    }
  ],
  "meshes": [
    {
      "name": "Object_0",
      "primitives": [
        {
          "attributes": {
            "NORMAL": 1,
            "POSITION": 0,
            "TEXCOORD_0": 2
          },
          "indices": 3,
          "material": 0,
          "mode": 4
        }
      ]
    },
    {
      "name": "Object_1",
      "primitives": [
        {
          "attributes": {
            "NORMAL": 5,
            "POSITION": 4,
            "TEXCOORD_0": 6
          },
          "indices": 7,
          "material": 1,
          "mode": 4
        }
      ]
    },
    {
      "name": "Object_2",
      "primitives": [
        {
          "attributes": {
            "NORMAL": 9,
            "POSITION": 8,
            "TEXCOORD_0": 10
          },
          "indices": 11,
          "material": 2,
          "mode": 4
        }
      ]
    },
    {
      "name": "Object_3",
      "primitives": [
        {
          "attributes": {
            "NORMAL": 13,
            "POSITION": 12,
            "TEXCOORD_0": 14
          },
          "indices": 15,
          "material": 3,
          "mode": 4
        }
      ]
    },
    {
      "name": "Object_4",
      "primitives": [
        {
          "attributes": {
            "NORMAL": 17,
            "POSITION": 16,
            "TEXCOORD_0": 18
          },
          "indices": 19,
          "material": 3,
          "mode": 4
        }
      ]
    },
    {
      "name": "Object_5",
      "primitives": [
        {
          "attributes": {
            "NORMAL": 21,
            "POSITION": 20,
            "TEXCOORD_0": 22
          },
          "indices": 23,
          "material": 4,
          "mode": 4
        }
      ]
    },
    {
      "name": "Object_6",
      "primitives": [
        {
          "attributes": {
            "NORMAL": 25,
            "POSITION": 24,
            "TEXCOORD_0": 26
          },
          "indices": 27,
          "material": 2,
          "mode": 4
        }
      ]
    },
    {
      "name": "Object_7",
      "primitives": [
        {
          "attributes": {
            "NORMAL": 29,
            "POSITION": 28,
            "TEXCOORD_0": 30
          },
          "indices": 31,
          "material": 3,
          "mode": 4
        }
      ]
    },
    {
      "name": "Object_8",
      "primitives": [
        {
          "attributes": {
            "NORMAL": 33,
            "POSITION": 32,
            "TEXCOORD_0": 34
          },
          "indices": 35,
          "material": 4,
          "mode": 4
        }
      ]
    },
    {
      "name": "Object_9",
      "primitives": [
        {
          "attributes": {
            "NORMAL": 37,
            "POSITION": 36,
            "TEXCOORD_0": 38
          },
          "indices": 39,
          "material": 2,
          "mode": 4
        }
      ]
    },
    {
      "name": "Object_10",
      "primitives": [
        {
          "attributes": {
            "NORMAL": 41,
            "POSITION": 40,
            "TEXCOORD_0": 42
          },
          "indices": 43,
          "material": 2,
          "mode": 4
        }
      ]
    },
    {
      "name": "Object_11",
      "primitives": [
        {
          "attributes": {
            "NORMAL": 45,
            "POSITION": 44,
            "TEXCOORD_0": 46
          },
          "indices": 47,
          "material": 5,
          "mode": 4
        }
      ]
    },
    {
      "name": "Object_12",
      "primitives": [
        {
          "attributes": {
            "NORMAL": 49,
            "POSITION": 48,
            "TEXCOORD_0": 50
          },
          "indices": 51,
          "material": 2,
          "mode": 4
        }
      ]
    },
    {
      "name": "Object_13",
      "primitives": [
        {
          "attributes": {
            "NORMAL": 53,
            "POSITION": 52,
            "TEXCOORD_0": 54
          },
          "indices": 55,
          "material": 6,
          "mode": 4
        }
      ]
    },
    {
      "name": "Object_14",
      "primitives": [
        {
          "attributes": {
            "NORMAL": 57,
            "POSITION": 56,
            "TEXCOORD_0": 58
          },
          "indices": 59,
          "material": 2,
          "mode": 4
        }
      ]
    },
    {
      "name": "Object_15",
      "primitives": [
        {
          "attributes": {
            "NORMAL": 61,
            "POSITION": 60,
            "TEXCOORD_0": 62
          },
          "indices": 63,
          "material": 7,
          "mode": 4
        }
      ]
    },
    {
      "name": "Object_16",
      "primitives": [
        {
          "attributes": {
            "NORMAL": 65,
            "POSITION": 64,
            "TEXCOORD_0": 66
          },
          "indices": 67,
          "material": 2,
          "mode": 4
        }
      ]
    },
    {
      "name": "Object_17",
      "primitives": [
        {
          "attributes": {
            "NORMAL": 69,
            "POSITION": 68,
            "TEXCOORD_0": 70
          },
          "indices": 71,
          "material": 8,
          "mode": 4
        }
      ]
    },
    {
      "name": "Object_18",
      "primitives": [
        {
          "attributes": {
            "NORMAL": 73,
            "POSITION": 72,
            "TEXCOORD_0": 74
          },
          "indices": 75,
          "material": 2,
          "mode": 4
        }
      ]
    },
    {
      "name": "Object_19",
      "primitives": [
        {
          "attributes": {
            "NORMAL": 77,
            "POSITION": 76,
            "TEXCOORD_0": 78
          },
          "indices": 79,
          "material": 7,
          "mode": 4
        }
      ]
    },
    {
      "name": "Object_20",
      "primitives": [
        {
          "attributes": {
            "NORMAL": 81,
            "POSITION": 80,
            "TEXCOORD_0": 82
          },
          "indices": 83,
          "material": 2,
          "mode": 4
        }
      ]
    },
    {
      "name": "Object_21",
      "primitives": [
        {
          "attributes": {
            "NORMAL": 85,
            "POSITION": 84,
            "TEXCOORD_0": 86
          },
          "indices": 87,
          "material": 8,
          "mode": 4
        }
      ]
    },
    {
      "name": "Object_22",
      "primitives": [
        {
          "attributes": {
            "NORMAL": 89,
            "POSITION": 88,
            "TEXCOORD_0": 90
          },
          "indices": 91,
          "material": 2,
          "mode": 4
        }
      ]
    },
    {
      "name": "Object_23",
      "primitives": [
        {
          "attributes": {
            "NORMAL": 93,
            "POSITION": 92,
            "TEXCOORD_0": 94
          },
          "indices": 95,
          "material": 6,
          "mode": 4
        }
      ]
    },
    {
      "name": "Object_24",
      "primitives": [
        {
          "attributes": {
            "NORMAL": 97,
            "POSITION": 96,
            "TEXCOORD_0": 98
          },
          "indices": 99,
          "material": 2,
          "mode": 4
        }
      ]
    },
    {
      "name": "Object_25",
      "primitives": [
        {
          "attributes": {
            "NORMAL": 101,
            "POSITION": 100,
            "TEXCOORD_0": 102
          },
          "indices": 103,
          "material": 5,
          "mode": 4
        }
      ]
    },
    {
      "name": "Object_26",
      "primitives": [
        {
          "attributes": {
            "NORMAL": 105,
            "POSITION": 104,
            "TEXCOORD_0": 106
          },
          "indices": 107,
          "material": 9,
          "mode": 4
        }
      ]
    },
    {
      "name": "Object_27",
      "primitives": [
        {
          "attributes": {
            "NORMAL": 109,
            "POSITION": 108,
            "TEXCOORD_0": 110
          },
          "indices": 111,
          "material": 10,
          "mode": 4
        }
      ]
    }
  ],
  "nodes": [
    {
      "children": [
        1
      ],
      "matrix": [
        1.0,
        0.0,
        0.0,
        0.0,
        0.0,
        2.220446049250313e-16,
        -1.0,
        0.0,
        0.0,
        1.0,
        2.220446049250313e-16,
        0.0,
        0.0,
        0.0,
        0.0,
        1.0
      ],
      "name": "Sketchfab_model"
    },
    {
      "children": [
        2
      ],
      "name": "root"
    },
    {
      "children": [
        3,
        8,
        12,
        16,
        19,
        22,
        25,
        28,
        31,
        34,
        37,
        40
      ],
      "matrix": [
        1.0,
        0.0,
        0.0,
        0.0,
        0.0,
        2.220446049250313e-16,
        1.0,
        0.0,
        0.0,
        -1.0,
        2.220446049250313e-16,
        0.0,
        0.0,
        0.0,
        0.0,
        1.0
      ],
      "name": "GLTF_SceneRootNode"
    },
    {
      "children": [
        4,
        5,
        6,
        7
      ],
      "matrix": [
        3.4287631511688232,
        0.0,
        0.0,
        0.0,
        0.0,
        6.438065528869629,
        0.0,
        0.0,
        0.0,
        0.0,
        3.4987430572509766,
        0.0,
        0.0,
        6.381479740142822,
        0.0,
        1.0
      ],
      "name": "cabinet_0"
    },
    {
      "mesh": 0,
      "name": "Object_4"
    },
    {
      "mesh": 1,
      "name": "Object_5"
    },
    {
      "mesh": 2,
      "name": "Object_6"
    },
    {
      "mesh": 3,
      "name": "Object_7"
    },
    {
      "children": [
        9,
        10,
        11
      ],
      "matrix": [
        0.2978411512390029,
        -0.03734355204273177,
        0.0,
        0.0,
        0.011161405432213094,
        0.08902007606484845,
        0.0,
        0.0,
        0.0,
        0.0,
        0.3001731038093567,
        0.0,
        4.440908432006836,
        5.697110176086426,
        1.843665361404419,
        1.0
      ],
      "name": "lever1_2"
    },
    {
      "mesh": 4,
      "name": "Object_9"
    },
    {
      "mesh": 5,
      "name": "Object_10"
    },
    {
      "mesh": 6,
      "name": "Object_11"
    },
    {
      "children": [
        13,
        14,
        15
      ],
      "matrix": [
        0.2978411512390029,
        -0.03734355204273177,
        -0.0,
        0.0,
        0.011161405432213094,
        0.08902007606484845,
        0.0,
        0.0,
        0.0,
        0.0,
        0.3001731038093567,
        0.0,
        4.440908432006836,
        5.697110176086426,
        -0.5781733989715576,
        1.0
      ],
      "name": "lever2_3"
    },
    {
      "mesh": 7,
      "name": "Object_13"
    },
    {
      "mesh": 8,
      "name": "Object_14"
    },
    {
      "mesh": 9,
      "name": "Object_15"
    },
    {
      "children": [
        17,
        18
      ],
      "matrix": [
        0.6687868135874591,
        -0.08385300377332652,
        0.0,
        0.0,
        0.08385300377332652,
        0.6687868135874591,
        0.0,
        0.0,
        0.0,
        0.0,
        0.6740230917930603,
        0.0,
        4.2882080078125,
        5.764369010925293,
        1.0258368253707886,
        1.0
      ],
      "name": "button1_1_4"
    },
    {
      "mesh": 10,
      "name": "Object_17"
    },
    {
      "mesh": 11,
      "name": "Object_18"
    },
    {
      "children": [
        20,
        21
      ],
      "matrix": [
        0.6687868135874591,
        -0.08385300377332652,
        0.0,
        0.0,
        0.08385300377332652,
        0.6687868135874591,
        0.0,
        0.0,
        0.0,
        0.0,
        0.6740230917930603,
        0.0,
        4.2882080078125,
        5.764369010925293,
        0.563677191734314,
        1.0
      ],
      "name": "button2_1_5"
    },
    {
      "mesh": 12,
      "name": "Object_20"
    },
    {
      "mesh": 13,
      "name": "Object_21"
    },
    {
      "children": [
        23,
        24
      ],
      "matrix": [
        0.6687868135874591,
        -0.08385300377332652,
        0.0,
        0.0,
        0.08385300377332652,
        0.6687868135874591,
        0.0,
        0.0,
        0.0,
        0.0,
        0.6740230917930603,
        0.0,
        4.701502799987793,
        5.712549686431885,
        0.32657521963119507,
        1.0
      ],
      "name": "button4_1_6"
    },
    {
      "mesh": 14,
      "name": "Object_23"
    },
    {
      "mesh": 15,
      "name": "Object_24"
    },
    {
      "children": [
        26,
        27
      ],
      "matrix": [
        0.6687868135874591,
        -0.08385300377332652,
        0.0,
        0.0,
        0.08385300377332652,
        0.6687868135874591,
        0.0,
        0.0,
        0.0,
        0.0,
        0.6740230917930603,
        0.0,
        4.701502799987793,
        5.712549686431885,
        0.7887347936630249,
        1.0
      ],
      "name": "button3_1_7"
    },
    {
      "mesh": 16,
      "name": "Object_26"
    },
    {
      "mesh": 17,
      "name": "Object_27"
    },
    {
      "children": [
        29,
        30
      ],
      "matrix": [
        0.6687868135874591,
        -0.08385300377332652,
        -0.0,
        0.0,
        0.08385300377332652,
        0.6687868135874591,
        0.0,
        0.0,
        0.0,
        0.0,
        0.6740230917930603,
        0.0,
        4.701502799987793,
        5.712549686431885,
        -2.076331853866577,
        1.0
      ],
      "name": "button4_2_8"
    },
    {
      "mesh": 18,
      "name": "Object_29"
    },
    {
      "mesh": 19,
      "name": "Object_30"
    },
    {
      "children": [
        32,
        33
      ],
      "matrix": [
        0.6687868135874591,
        -0.08385300377332652,
        -0.0,
        0.0,
        0.08385300377332652,
        0.6687868135874591,
        0.0,
        0.0,
        0.0,
        0.0,
        0.6740230917930603,
        0.0,
        4.701502799987793,
        5.712549686431885,
        -1.6141724586486816,
        1.0
      ],
      "name": "button3_2_9"
    },
    {
      "mesh": 20,
      "name": "Object_32"
    },
    {
      "mesh": 21,
      "name": "Object_33"
    },
    {
      "children": [
        35,
        36
      ],
      "matrix": [
        0.6687868135874591,
        -0.08385300377332652,
        -0.0,
        0.0,
        0.08385300377332652,
        0.6687868135874591,
        0.0,
        0.0,
        0.0,
        0.0,
        0.6740230917930603,
        0.0,
        4.2882080078125,
        5.764369010925293,
        -1.8392300605773926,
        1.0
      ],
      "name": "button2_2_10"
    },
    {
      "mesh": 22,
      "name": "Object_35"
    },
    {
      "mesh": 23,
      "name": "Object_36"
    },
    {
      "children": [
        38,
        39
      ],
      "matrix": [
        0.6687868135874591,
        -0.08385300377332652,
        -0.0,
        0.0,
        0.08385300377332652,
        0.6687868135874591,
        0.0,
        0.0,
        0.0,
        0.0,
        0.6740230917930603,
        0.0,
        4.2882080078125,
        5.764369010925293,
        -1.377070426940918,
        1.0
      ],
      "name": "button1_2_11"
    },
    {
      "mesh": 24,
      "name": "Object_38"
    },
    {
      "mesh": 25,
      "name": "Object_39"
    },
    {
      "children": [
        41,
        42
      ],
      "matrix": [
        1.0,
        0.0,
        0.0,
        0.0,
        0.0,
        2.4434773921966553,
        0.0,
        0.0,
        0.0,
        0.0,
        2.7671244144439697,
        0.0,
        1.5843524932861328,
        8.639117240905762,
        0.0,
        1.0
      ],
      "name": "screen_12"
    },
    {
      "mesh": 26,
      "name": "Object_41"
    },
    {
      "mesh": 27,
      "name": "Object_42"
    }
  ],
  "scene": 0,
  "scenes": [
    {
      "name": "Sketchfab_Scene",
      "nodes": [
        0
      ]
    }
  ]
}
