{
  "accessors": [
    {
      "bufferView": 2,
      "componentType": 5126,
      "count": 1390,
      "max": [
        2.25,
        2.1606683731079102e-07,
        3.0
      ],
      "min": [
        -2.25,
        -0.7500002384185791,
        -5.3197851457298384e-08
      ],
      "type": "VEC3"
    },
    {
      "bufferView": 2,
      "byteOffset": 16680,
      "componentType": 5126,
      "count": 1390,
      "max": [
        1.0,
        1.0,
        1.0
      ],
      "min": [
        -1.0,
        -1.0,
        -1.0
      ],
      "type": "VEC3"
    },
    {
      "bufferView": 3,
      "componentType": 5126,
      "count": 1390,
      "max": [
        1.0,
        1.0,
        1.0,
        1.0
      ],
      "min": [
        -1.0,
        -1.0,
        -1.0,
        1.0
      ],
      "type": "VEC4"
    },
    {
      "bufferView": 1,
      "componentType": 5126,
      "count": 1390,
      "max": [
        0.9862653017044067,
        0.9964956641197205
      ],
      "min": [
        0.002978868782520294,
        0.003181498497724533
      ],
      "type": "VEC2"
    },
    {
      "bufferView": 1,
      "byteOffset": 11120,
      "componentType": 5126,
      "count": 1390,
      "max": [
        0.9862653017044067,
        0.9964956641197205
      ],
      "min": [
        0.002978868782520294,
        0.003181498497724533
      ],
      "type": "VEC2"
    },
    {
      "bufferView": 0,
      "componentType": 5125,
      "count": 3042,
      "type": "SCALAR"
    },
    {
      "bufferView": 2,
      "byteOffset": 33360,
      "componentType": 5126,
      "count": 30,
      "max": [
        1.0507065057754517,
        -0.736163318157196,
        2.7381887435913086
      ],
      "min": [
        -1.0507065057754517,
        -0.7361635565757751,
        0.26593780517578125
      ],
      "type": "VEC3"
    },
    {
      "bufferView": 2,
      "byteOffset": 33720,
      "componentType": 5126,
      "count": 30,
      "max": [
        0.0,
        -1.0,
        0.0
      ],
      "min": [
        0.0,
        -1.0,
        0.0
      ],
      "type": "VEC3"
    },
    {
      "bufferView": 1,
      "byteOffset": 22240,
      "componentType": 5126,
      "count": 30,
      "max": [
        0.9247453212738037,
        0.9999077916145325
      ],
      "min": [
        0.07489997148513794,
        9.217855404131114e-05
      ],
      "type": "VEC2"
    },
    {
      "bufferView": 0,
      "byteOffset": 12168,
      "componentType": 5125,
      "count": 108,
      "type": "SCALAR"
    },
    {
      "bufferView": 2,
      "byteOffset": 34080,
      "componentType": 5126,
      "count": 1390,
      "max": [
        2.25,
        2.1606683731079102e-07,
        3.0
      ],
      "min": [
        -2.25,
        -0.7500002384185791,
        -5.3197851457298384e-08
      ],
      "type": "VEC3"
    },
    {
      "bufferView": 2,
      "byteOffset": 50760,
      "componentType": 5126,
      "count": 1390,
      "max": [
        1.0,
        1.0,
        1.0
      ],
      "min": [
        -1.0,
        -1.0,
        -1.0
      ],
      "type": "VEC3"
    },
    {
      "bufferView": 3,
      "byteOffset": 22240,
      "componentType": 5126,
      "count": 1390,
      "max": [
        1.0,
        1.0,
        1.0,
        1.0
      ],
      "min": [
        -1.0,
        -1.0,
        -1.0,
        1.0
      ],
      "type": "VEC4"
    },
    {
      "bufferView": 1,
      "byteOffset": 22480,
      "componentType": 5126,
      "count": 1390,
      "max": [
        0.9862653017044067,
        0.9964956641197205
      ],
      "min": [
        0.002978868782520294,
        0.003181498497724533
      ],
      "type": "VEC2"
    },
    {
      "bufferView": 1,
      "byteOffset": 33600,
      "componentType": 5126,
      "count": 1390,
      "max": [
        0.9862653017044067,
        0.9964956641197205
      ],
      "min": [
        0.002978868782520294,
        0.003181498497724533
      ],
      "type": "VEC2"
    },
    {
      "bufferView": 0,
      "byteOffset": 12600,
      "componentType": 5125,
      "count": 3042,
      "type": "SCALAR"
    },
    {
      "bufferView": 2,
      "byteOffset": 67440,
      "componentType": 5126,
      "count": 30,
      "max": [
        1.0507065057754517,
        -0.736163318157196,
        2.7381887435913086
      ],
      "min": [
        -1.0507065057754517,
        -0.7361635565757751,
        0.26593780517578125
      ],
      "type": "VEC3"
    },
    {
      "bufferView": 2,
      "byteOffset": 67800,
      "componentType": 5126,
      "count": 30,
      "max": [
        0.0,
        -1.0,
        0.0
      ],
      "min": [
        0.0,
        -1.0,
        0.0
      ],
      "type": "VEC3"
    },
    {
      "bufferView": 1,
      "byteOffset": 44720,
      "componentType": 5126,
      "count": 30,
      "max": [
        0.9247453212738037,
        0.9999077916145325
      ],
      "min": [
        0.07489997148513794,
        9.217855404131114e-05
      ],
      "type": "VEC2"
    },
    {
      "bufferView": 0,
      "byteOffset": 24768,
      "componentType": 5125,
      "count": 108,
      "type": "SCALAR"
    },
    {
      "bufferView": 2,
      "byteOffset": 68160,
      "componentType": 5126,
      "count": 1390,
      "max": [
        2.25,
        2.1606683731079102e-07,
        3.0
      ],
      "min": [
        -2.25,
        -0.7500002384185791,
        -5.3197851457298384e-08
      ],
      "type": "VEC3"
    },
    {
      "bufferView": 2,
      "byteOffset": 84840,
      "componentType": 5126,
      "count": 1390,
      "max": [
        1.0,
        1.0,
        1.0
      ],
      "min": [
        -1.0,
        -1.0,
        -1.0
      ],
      "type": "VEC3"
    },
    {
      "bufferView": 3,
      "byteOffset": 44480,
      "componentType": 5126,
      "count": 1390,
      "max": [
        1.0,
        1.0,
        1.0,
        1.0
      ],
      "min": [
        -1.0,
        -1.0,
        -1.0,
        1.0
      ],
      "type": "VEC4"
    },
    {
      "bufferView": 1,
      "byteOffset": 44960,
      "componentType": 5126,
      "count": 1390,
      "max": [
        0.9862653017044067,
        0.9964956641197205
      ],
      "min": [
        0.002978868782520294,
        0.003181498497724533
      ],
      "type": "VEC2"
    },
    {
      "bufferView": 1,
      "byteOffset": 56080,
      "componentType": 5126,
      "count": 1390,
      "max": [
        0.9862653017044067,
        0.9964956641197205
      ],
      "min": [
        0.002978868782520294,
        0.003181498497724533
      ],
      "type": "VEC2"
    },
    {
      "bufferView": 0,
      "byteOffset": 25200,
      "componentType": 5125,
      "count": 3042,
      "type": "SCALAR"
    },
    {
      "bufferView": 2,
      "byteOffset": 101520,
      "componentType": 5126,
      "count": 30,
      "max": [
        1.0507065057754517,
        -0.736163318157196,
        2.7381887435913086
      ],
      "min": [
        -1.0507065057754517,
        -0.7361635565757751,
        0.26593780517578125
      ],
      "type": "VEC3"
    },
    {
      "bufferView": 2,
      "byteOffset": 101880,
      "componentType": 5126,
      "count": 30,
      "max": [
        0.0,
        -1.0,
        0.0
      ],
      "min": [
        0.0,
        -1.0,
        0.0
      ],
      "type": "VEC3"
    },
    {
      "bufferView": 1,
      "byteOffset": 67200,
      "componentType": 5126,
      "count": 30,
      "max": [
        0.9247453212738037,
        0.9999077916145325
      ],
      "min": [
        0.07489997148513794,
        9.217855404131114e-05
      ],
      "type": "VEC2"
    },
    {
      "bufferView": 0,
      "byteOffset": 37368,
      "componentType": 5125,
      "count": 108,
      "type": "SCALAR"
    }
  ],
  "asset": {
    "extras": {
      "author": "Chris Sweetwood (https://sketchfab.com/ChrisSweetwood)",
      "license": "CC-BY-NC-SA-4.0 (http://creativecommons.org/licenses/by-nc-sa/4.0/)",
      "source": "https://sketchfab.com/3d-models/nintendo-64-cart-7b93f9cb196743009c2211a5e47643d8",
      "title": "Nintendo 64 Cart"
    },
    "generator": "Sketchfab-12.66.0",
    "version": "2.0"
  },
  "bufferViews": [
    {
      "buffer": 0,
      "byteLength": 37800,
      "name": "floatBufferViews",
      "target": 34963
    },
    {
      "buffer": 0,
      "byteLength": 67440,
      "byteOffset": 37800,
      "byteStride": 8,
      "name": "floatBufferViews",
      "target": 34962
    },
    {
      "buffer": 0,
      "byteLength": 102240,
      "byteOffset": 105240,
      "byteStride": 12,
      "name": "floatBufferViews",
      "target": 34962
    },
    {
      "buffer": 0,
      "byteLength": 66720,
      "byteOffset": 207480,
      "byteStride": 16,
      "name": "floatBufferViews",
      "target": 34962
    }
  ],
  "buffers": [
    {
      "byteLength": 274200,
      "uri": "scene.bin"
    }
  ],
  "images": [
    {
      "uri": "textures/Material_baseColor.png"
    },
    {
      "uri": "textures/Material_metallicRoughness.png"
    },
    {
      "uri": "textures/Material_normal.png"
    },
    {
      "uri": "textures/LogoMaterial_baseColor.png"
    }
  ],
  "materials": [
    {
      "doubleSided": true,
      "name": "Material",
      "normalTexture": {
        "index": 2
      },
      "occlusionTexture": {
        "index": 1
      },
      "pbrMetallicRoughness": {
        "baseColorTexture": {
          "index": 0
        },
        "metallicRoughnessTexture": {
          "index": 1
        }
      }
    },
    {
      "doubleSided": true,
      "name": "LogoMaterial",
      "pbrMetallicRoughness": {
        "baseColorTexture": {
          "index": 3
        },
        "metallicFactor": 0.0,
        "roughnessFactor": 0.23608993899999997
      }
    }
  ],
  "meshes": [
    {
      "name": "BezierCurve.002_Material_0",
      "primitives": [
        {
          "attributes": {
            "NORMAL": 1,
            "POSITION": 0,
            "TANGENT": 2,
            "TEXCOORD_0": 3,
            "TEXCOORD_1": 4
          },
          "indices": 5,
          "material": 0,
          "mode": 4
        }
      ]
    },
    {
      "name": "BezierCurve.002_LogoMaterial_0",
      "primitives": [
        {
          "attributes": {
            "NORMAL": 7,
            "POSITION": 6,
            "TEXCOORD_0": 8
          },
          "indices": 9,
          "material": 1,
          "mode": 4
        }
      ]
    },
    {
      "name": "BezierCurve.001_Material_0",
      "primitives": [
        {
          "attributes": {
            "NORMAL": 11,
            "POSITION": 10,
            "TANGENT": 12,
            "TEXCOORD_0": 13,
            "TEXCOORD_1": 14
          },
          "indices": 15,
          "material": 0,
          "mode": 4
        }
      ]
    },
    {
      "name": "BezierCurve.001_LogoMaterial_0",
      "primitives": [
        {
          "attributes": {
            "NORMAL": 17,
            "POSITION": 16,
            "TEXCOORD_0": 18
          },
          "indices": 19,
          "material": 1,
          "mode": 4
        }
      ]
    },
    {
      "name": "BezierCurve_Material_0",
      "primitives": [
        {
          "attributes": {
            "NORMAL": 21,
            "POSITION": 20,
            "TANGENT": 22,
            "TEXCOORD_0": 23,
            "TEXCOORD_1": 24
          },
          "indices": 25,
          "material": 0,
          "mode": 4
        }
      ]
    },
    {
      "name": "BezierCurve_LogoMaterial_0",
      "primitives": [
        {
          "attributes": {
            "NORMAL": 27,
            "POSITION": 26,
            "TEXCOORD_0": 28
          },
          "indices": 29,
          "material": 1,
          "mode": 4
        }
      ]
    }
  ],
  "nodes": [
    {
      "children": [
        1
      ],
      "matrix": [
        1.0,
        0.0,
        0.0,
        0.0,
        0.0,
        2.220446049250313e-16,
        -1.0,
        0.0,
        0.0,
        1.0,
        2.220446049250313e-16,
        0.0,
        0.0,
        0.0,
        0.0,
        1.0
      ],
      "name": "Sketchfab_model"
    },
    {
      "children": [
        2
      ],
      "matrix": [
        1.0,
        0.0,
        0.0,
        0.0,
        0.0,
        0.0,
        1.0,
        0.0,
        0.0,
        -1.0,
        0.0,
        0.0,
        0.0,
        0.0,
        0.0,
        1.0
      ],
      "name": "809027f3aff341d389c206c56aee1aa6.fbx"
    },
    {
      "children": [
        3,
        6,
        9
      ],
      "name": "RootNode"
    },
    {
      "children": [
        4,
        5
      ],
      "matrix": [
        -20.895814348454866,
        -5.314965232563428e-13,
        97.79245851656921,
        0.0,
        -4.274643554406107e-06,
        99.9999999999999,
        -9.13384388980289e-07,
        0.0,
        -97.79245851656913,
        -4.371138130882882e-06,
        -20.895814348454845,
        0.0,
        -288.5708312988281,
        0.0,
        156.58387756347656,
        1.0
      ],
      "name": "BezierCurve.002"
    },
    {
      "mesh": 0,
      "name": "BezierCurve.002_Material_0"
    },
    {
      "mesh": 1,
      "name": "BezierCurve.002_LogoMaterial_0"
    },
    {
      "children": [
        7,
        8
      ],
      "matrix": [
        88.5423815996941,
        1.590889369770782e-13,
        -46.478437309953776,
        0.0,
        2.031637160666938e-06,
        99.9999999999999,
        3.870311031783776e-06,
        0.0,
        46.47843730995373,
        -4.371138766943356e-06,
        88.54238159969401,
        0.0,
        -59.64242935180664,
        0.0,
        -75.14798736572266,
        1.0
      ],
      "name": "BezierCurve.001"
    },
    {
      "mesh": 2,
      "name": "BezierCurve.001_Material_0"
    },
    {
      "mesh": 3,
      "name": "BezierCurve.001_LogoMaterial_0"
    },
    {
      "children": [
        10,
        11
      ],
      "matrix": [
        100.0,
        0.0,
        0.0,
        0.0,
        0.0,
        -1.629206793918314e-05,
        -99.99999999999868,
        0.0,
        0.0,
        99.99999999999868,
        -1.629206793918314e-05,
        0.0,
        0.0,
        0.0,
        0.0,
        1.0
      ],
      "name": "BezierCurve"
    },
    {
      "mesh": 4,
      "name": "BezierCurve_Material_0"
    },
    {
      "mesh": 5,
      "name": "BezierCurve_LogoMaterial_0"
    }
  ],
  "samplers": [
    {
      "magFilter": 9729,
      "minFilter": 9987,
      "wrapS": 10497,
      "wrapT": 10497
    }
  ],
  "scene": 0,
  "scenes": [
    {
      "name": "Sketchfab_Scene",
      "nodes": [
        0
      ]
    }
  ],
  "textures": [
    {
      "sampler": 0,
      "source": 0
    },
    {
      "sampler": 0,
      "source": 1
    },
    {
      "sampler": 0,
      "source": 2
    },
    {
      "sampler": 0,
      "source": 3
    }
  ]
}
